<svg id="SvgjsSvg1001" width="288" height="288" xmlns="http://www.w3.org/2000/svg" version="1.1" xmlns:xlink="http://www.w3.org/1999/xlink" xmlns:svgjs="http://svgjs.com/svgjs"><defs id="SvgjsDefs1002"></defs><g id="SvgjsG1008" transform="matrix(1,0,0,1,0,0)"><svg xmlns="http://www.w3.org/2000/svg" width="288" height="288" version="1.0" viewBox="0 0 700 905"><path d="M305 8992 c-120 -42 -214 -125 -268 -240 l-32 -67 0 -4190 0 -419032 -66 c39 -79 102 -140 181 -177 51 -24 68 -27 167 -27 l110 1 1615 623 c888
343 1901 733 2250 867 754 290 803 315 975 495 114 119 187 233 239 371 14 37
335 1094 713 2350 l687 2283 4 102 c4 110 -9 177 -53 263 -51 101 -162 202
-264 240 -30 12 -1364 313 -2965 670 -1601 358 -2967 663 -3036 680 -149 35
-276 39 -355 12z" transform="matrix(.1 0 0 -.1 0 905)" fill="#66ccff" class="color000 svgShape"></path></svg></g></svg>