<?xml version="1.0" standalone="no"?>
<!DOCTYPE svg PUBLIC "-//W3C//DTD SVG 20010904//EN"
 "http://www.w3.org/TR/2001/REC-SVG-20010904/DTD/svg10.dtd">
<svg version="1.0" xmlns="http://www.w3.org/2000/svg"
 width="512.000000pt" height="512.000000pt" viewBox="0 0 512.000000 512.000000"
 preserveAspectRatio="xMidYMid meet">

<g transform="translate(0.000000,512.000000) scale(0.100000,-0.100000)"
fill="#000000" stroke="none">
<path d="M236 4919 c-58 -45 -56 -23 -56 -702 l0 -624 23 -34 c12 -18 34 -39
47 -46 19 -10 171 -13 655 -13 614 0 631 1 663 20 63 39 62 27 61 697 0 444
-3 617 -12 643 -7 19 -27 44 -46 57 l-34 23 -637 0 c-631 0 -638 0 -664 -21z
m1304 -78 c14 -27 14 -1215 0 -1242 -10 -18 -28 -19 -633 -19 -471 0 -626 3
-635 12 -17 17 -17 1239 0 1256 9 9 164 12 635 12 605 0 623 -1 633 -19z"/>
<path d="M1809 4923 c-61 -38 -59 -11 -59 -703 0 -567 2 -635 16 -660 37 -62
10 -60 704 -60 692 0 673 -2 705 60 23 44 23 1276 0 1320 -32 62 -12 60 -707
60 -567 -1 -636 -2 -659 -17z m1301 -89 c6 -15 10 -257 10 -617 0 -520 -2
-595 -16 -615 l-15 -22 -618 0 c-466 0 -620 3 -629 12 -9 9 -12 161 -12 624 0
337 3 619 6 628 6 14 71 16 635 16 l629 0 10 -26z"/>
<path d="M3369 4917 c-19 -13 -39 -38 -46 -57 -17 -50 -17 -1230 0 -1280 7
-19 27 -44 46 -57 l34 -23 637 0 c631 0 638 0 664 21 58 45 56 24 56 699 0
675 2 654 -56 699 -26 21 -33 21 -664 21 l-637 0 -34 -23z m1299 -69 c17 -17
17 -1239 0 -1256 -9 -9 -164 -12 -635 -12 -605 0 -623 1 -633 19 -6 13 -10
226 -10 621 0 395 4 608 10 621 10 18 28 19 633 19 471 0 626 -3 635 -12z"/>
<path d="M2304 3395 c-144 -31 -264 -97 -374 -205 -327 -321 -298 -843 63
-1133 134 -108 284 -159 467 -160 139 0 234 23 348 83 l77 41 57 -62 c51 -56
56 -65 51 -98 -2 -20 -6 -42 -9 -48 -3 -10 -126 -13 -575 -13 -627 0 -606 2
-643 -60 -14 -25 -16 -93 -16 -660 0 -692 -2 -673 60 -705 44 -23 1276 -23
1320 0 61 31 60 23 60 597 l1 523 59 -65 60 -65 1 -445 c0 -317 4 -455 12
-480 7 -19 27 -44 46 -57 l34 -23 637 0 c631 0 638 0 664 21 58 45 56 23 56
702 l0 624 -23 34 c-12 18 -34 39 -47 46 -19 10 -152 13 -562 13 l-536 0 -57
63 -56 62 604 5 c587 5 606 6 627 25 51 46 50 30 50 695 0 675 2 654 -56 699
-26 21 -33 21 -664 21 l-637 0 -34 -23 c-19 -13 -39 -38 -46 -57 -9 -26 -12
-197 -12 -632 l-1 -596 -69 0 -69 1 -57 57 -57 58 46 76 c151 248 152 542 5
794 -44 73 -178 207 -251 251 -170 99 -375 135 -554 96z m374 -98 c202 -71
356 -225 425 -426 27 -76 30 -100 30 -206 1 -142 -15 -212 -76 -330 -54 -105
-172 -225 -272 -277 -119 -62 -208 -81 -349 -75 -195 7 -319 60 -451 192 -159
160 -223 356 -191 583 38 269 228 479 499 553 106 28 284 22 385 -14z m1990
-19 c17 -17 17 -1239 0 -1256 -9 -9 -164 -12 -635 -12 -605 0 -623 1 -633 19
-6 13 -10 226 -10 621 0 395 4 608 10 621 10 18 28 19 633 19 471 0 626 -3
635 -12z m-1601 -1275 l-27 -28 -47 47 -46 46 29 26 29 25 45 -44 45 -45 -28
-27z m-52 -302 c3 -10 28 -44 56 -76 l49 -57 -2 -553 c-2 -438 -6 -557 -16
-567 -17 -17 -1203 -25 -1246 -8 l-26 10 0 623 c0 471 3 626 12 635 9 9 154
12 589 12 556 0 578 -1 584 -19z m1653 7 c9 -9 12 -163 12 -629 l0 -618 -22
-15 c-20 -14 -96 -16 -625 -16 -590 0 -603 0 -623 20 -19 19 -20 33 -20 421
l0 402 94 -91 c80 -78 102 -93 151 -107 64 -19 109 -15 172 17 92 46 142 123
143 221 0 97 -26 135 -239 360 l-45 47 495 0 c372 0 498 -3 507 -12z"/>
<path d="M2365 3170 c-249 -50 -425 -261 -426 -510 -1 -152 49 -275 152 -377
108 -106 220 -153 368 -153 207 0 379 107 470 291 102 208 65 436 -98 600
-124 124 -303 181 -466 149z m287 -122 c92 -46 167 -122 211 -215 30 -64 32
-75 32 -178 -1 -127 -19 -185 -83 -270 -162 -213 -479 -233 -666 -41 -176 180
-166 471 22 637 95 83 171 110 308 106 94 -2 106 -5 176 -39z"/>
<path d="M250 3357 c-13 -7 -35 -28 -47 -46 -22 -33 -23 -42 -21 -194 3 -140
5 -161 20 -171 13 -8 23 -8 35 0 16 10 18 31 21 164 1 93 7 159 13 167 9 10
131 13 635 13 606 0 624 -1 634 -19 14 -27 14 -1215 0 -1242 -10 -18 -28 -19
-634 -19 -503 0 -626 3 -634 13 -7 8 -13 67 -14 137 -3 104 -6 125 -21 134
-12 8 -22 8 -35 0 -14 -9 -17 -30 -20 -135 -3 -136 4 -166 50 -204 l30 -25
636 0 c685 0 666 -1 706 53 21 28 21 37 24 646 3 682 3 678 -57 718 l-34 23
-631 0 c-485 0 -637 -3 -656 -13z"/>
<path d="M210 2773 c-8 -3 -18 -11 -22 -17 -9 -13 -11 -278 -2 -300 4 -9 18
-16 34 -16 16 0 30 7 34 16 3 9 6 78 6 154 0 113 -3 142 -16 154 -8 9 -16 16
-17 15 -1 0 -9 -3 -17 -6z"/>
<path d="M243 1780 c-65 -39 -63 -15 -63 -700 0 -675 -2 -654 56 -699 26 -21
33 -21 669 -21 l642 0 28 22 c56 44 55 35 54 695 0 444 -3 617 -12 643 -7 19
-27 44 -46 57 l-34 23 -631 0 c-608 0 -632 -1 -663 -20z m1297 -79 c6 -13 10
-228 10 -630 l0 -610 -22 -15 c-20 -14 -96 -16 -623 -16 -527 0 -603 2 -623
16 l-22 15 0 618 c0 466 3 620 12 629 9 9 164 12 635 12 605 0 623 -1 633 -19z"/>
</g>
</svg>
