<svg xmlns="http://www.w3.org/2000/svg" version="1.0" width="512" height="512" preserveAspectRatio="xMidYMid meet"><rect id="backgroundrect" width="100%" height="100%" x="0" y="0" fill="none" stroke="none"/>
<metadata>
Created by potrace 1.16, written by Peter Selinger 2001-2019
</metadata>

<g class="currentLayer" style=""><title>Layer 1</title><g transform="translate(0,512) scale(0.10000000149011612,-0.10000000149011612) " fill="#919191" stroke="none" id="svg_1" class="selected" fill-opacity="1">
<path d="M2680 5104 c-219 -57 -403 -245 -454 -464 -9 -36 -16 -80 -16 -97 l0 -33 -598 0 c-678 0 -646 4 -689 -80 l-23 -44 0 -612 0 -612 -68 -7 c-175 -17 -289 -71 -407 -189 -120 -121 -172 -236 -181 -406 -12 -190 45 -340 181 -476 118 -118 237 -174 403 -190 l72 -7 0 -611 c0 -578 1 -613 19 -653 38 -82 -2 -77 685 -83 l609 -5 14 -60 c49 -215 237 -404 458 -460 76 -19 234 -19 310 0 221 56 409 245 458 460 l14 60 661 5 c648 5 661 5 689 26 15 11 36 36 45 55 17 31 18 89 18 767 0 715 0 734 -20 772 -25 50 -87 84 -139 77 -20 -2 -65 -12 -100 -22 -193 -52 -386 88 -399 290 -14 227 209 395 427 321 95 -33 180 -6 215 68 14 30 16 111 16 768 0 817 3 777 -69 825 l-34 23 -653 0 -654 0 0 33 c0 55 -29 159 -67 236 -50 104 -169 224 -273 274 -41 20 -102 44 -135 52 -75 19 -241 19 -315 -1z m-532 -1838 c15 -8 36 -24 47 -36 12 -13 79 -199 161 -443 77 -232 144 -422 148 -422 4 0 52 117 106 261 54 144 103 271 110 283 30 58 134 80 197 41 40 -24 39 -21 168 -338 66 -161 111 -259 115 -250 4 7 63 193 130 413 67 220 129 413 139 430 24 42 77 75 121 75 69 0 142 -69 143 -137 1 -42 -374 -1272 -399 -1311 -52 -80 -190 -80 -236 0 -7 13 -65 148 -128 302 -63 153 -119 279 -123 280 -5 0 -58 -129 -117 -287 -59 -159 -116 -297 -127 -309 -59 -66 -171 -62 -220 8 -30 43 -436 1269 -436 1316 0 95 118 167 201 124z" id="svg_2" fill="#919191" fill-opacity="1"/>
</g></g></svg>