<svg xmlns="http://www.w3.org/2000/svg" version="1.0" width="700.000000" height="905.000000" preserveAspectRatio="xMidYMid meet"><rect id="backgroundrect" width="100%" height="100%" x="0" y="0" fill="none" stroke="none"/>
<metadata>
Created by potrace 1.16, written by Peter Selinger 2001-2019
</metadata>

<g class="currentLayer" style=""><title>Layer 1</title><g transform="translate(0,905) scale(0.10000000149011612,-0.10000000149011612) " fill="#6767e7" stroke="none" id="svg_1" class="selected" fill-opacity="1">
<path d="M305 8992 c-120 -42 -214 -125 -268 -240 l-32 -67 0 -4190 0 -4190 32 -66 c39 -79 102 -140 181 -177 51 -24 68 -27 167 -27 l110 1 1615 623 c888 343 1901 733 2250 867 754 290 803 315 975 495 114 119 187 233 239 371 14 37 335 1094 713 2350 l687 2283 4 102 c4 110 -9 177 -53 263 -51 101 -162 202 -264 240 -30 12 -1364 313 -2965 670 -1601 358 -2967 663 -3036 680 -149 35 -276 39 -355 12z" id="svg_2" fill="#6767e7" fill-opacity="1"/>
</g></g></svg>